<svg width="20" height="19" viewBox="0 0 20 19" fill="none" xmlns="http://www.w3.org/2000/svg">
<rect x="5.38464" width="9.23077" height="1.53846" fill="black"/>
<rect x="5.38464" y="1.53845" width="9.23077" height="1.53846" fill="#EE3918"/>
<rect x="8.46155" y="3.0769" width="8.46154" height="1.53846" fill="#EE3918"/>
<rect x="10" y="4.61536" width="6.92308" height="1.53846" fill="#EE3918"/>
<rect x="11.5385" y="7.69232" width="6.92308" height="1.53846" fill="#EE3918"/>
<rect x="1.53845" y="7.69232" width="6.92308" height="1.53846" fill="#EE3918"/>
<rect x="13.0769" y="9.23077" width="3.84615" height="1.53846" fill="#EE3918"/>
<rect x="3.0769" y="9.23077" width="3.84615" height="1.53846" fill="#EE3918"/>
<rect x="8.46155" y="6.15381" width="10" height="1.53846" fill="#EE3918"/>
<rect x="1.53845" y="6.15381" width="5.38462" height="1.53846" fill="#EE3918"/>
<rect x="3.0769" y="4.61536" width="2.30769" height="1.53846" fill="#EE3918"/>
<rect x="3.0769" y="3.0769" width="3.84615" height="1.53846" fill="#EE3918"/>
<rect x="5.38464" y="4.61536" width="4.61538" height="1.53846" fill="white"/>
<rect x="6.9231" y="7.69232" width="4.61538" height="1.53846" transform="rotate(-90 6.9231 7.69232)" fill="white"/>
<rect x="6.15381" y="16.9231" width="4.61538" height="2.30769" transform="rotate(-90 6.15381 16.9231)" fill="white"/>
<rect x="11.5385" y="16.9231" width="4.61538" height="2.30769" transform="rotate(-90 11.5385 16.9231)" fill="white"/>
<rect x="3.0769" y="15.3846" width="3.07692" height="3.07692" transform="rotate(-90 3.0769 15.3846)" fill="white"/>
<rect x="13.8462" y="15.3846" width="3.07692" height="3.07692" transform="rotate(-90 13.8462 15.3846)" fill="white"/>
<rect x="16.9231" y="12.3077" width="1.53846" height="1.53846" transform="rotate(-90 16.9231 12.3077)" fill="white"/>
<rect x="1.53845" y="12.3077" width="1.53846" height="1.53846" transform="rotate(-90 1.53845 12.3077)" fill="white"/>
<rect x="8.46155" y="12.3077" width="3.07692" height="3.07692" transform="rotate(-90 8.46155 12.3077)" fill="white"/>
<rect x="8.46155" y="16.9231" width="3.07692" height="3.07692" transform="rotate(-90 8.46155 16.9231)" fill="white"/>
<rect x="8.46155" y="7.69232" width="3.07692" height="1.53846" fill="black"/>
<rect x="8.46155" y="12.3077" width="3.07692" height="1.53846" fill="black"/>
<rect x="14.6154" y="1.53845" width="2.30769" height="1.53846" fill="black"/>
<rect x="3.0769" y="1.53845" width="2.30769" height="1.53846" fill="black"/>
<rect x="11.5385" y="12.3077" width="3.07692" height="1.53846" transform="rotate(-90 11.5385 12.3077)" fill="black"/>
<rect x="6.9231" y="12.3077" width="3.07692" height="1.53846" transform="rotate(-90 6.9231 12.3077)" fill="black"/>
<rect x="13.0769" y="10.7692" width="3.84615" height="1.53846" fill="black"/>
<rect x="3.0769" y="10.7692" width="3.84615" height="1.53846" fill="black"/>
<rect x="16.9231" y="10.7692" width="1.53846" height="1.53846" transform="rotate(-90 16.9231 10.7692)" fill="black"/>
<rect x="1.53845" y="10.7692" width="1.53846" height="1.53846" transform="rotate(-90 1.53845 10.7692)" fill="black"/>
<rect x="18.4615" y="3.0769" width="3.07692" height="1.53846" transform="rotate(90 18.4615 3.0769)" fill="black"/>
<rect x="3.0769" y="3.0769" width="3.07692" height="1.53846" transform="rotate(90 3.0769 3.0769)" fill="black"/>
<rect x="18.4615" y="12.3077" width="3.07692" height="1.53846" transform="rotate(90 18.4615 12.3077)" fill="black"/>
<rect x="3.0769" y="12.3077" width="3.07692" height="1.53846" transform="rotate(90 3.0769 12.3077)" fill="black"/>
<rect x="13.8462" y="15.3846" width="3.07692" height="1.53846" fill="black"/>
<rect x="3.0769" y="15.3846" width="3.07692" height="1.53846" fill="black"/>
<rect x="20" y="6.15381" width="6.15385" height="1.53846" transform="rotate(90 20 6.15381)" fill="black"/>
<rect x="1.53845" y="6.15381" width="6.15385" height="1.53846" transform="rotate(90 1.53845 6.15381)" fill="black"/>
<rect x="6.15381" y="16.9231" width="7.69231" height="1.53846" fill="black"/>
</svg>
