<svg width="314" height="44" viewBox="0 0 314 44" fill="none" xmlns="http://www.w3.org/2000/svg">
<path d="M0.478516 7.5166C1.97526 7.02181 3.37923 6.56413 4.69043 6.14355C6.014 5.72298 7.4056 5.32715 8.86523 4.95605C10.3249 4.57259 11.7227 4.26953 13.0586 4.04688C14.0853 3.8737 15.1367 3.78711 16.2129 3.78711C18.0065 3.78711 19.1816 3.83659 19.7383 3.93555C20.5794 4.09635 21.3711 4.35612 22.1133 4.71484C22.8678 5.07357 23.5358 5.55599 24.1172 6.16211C24.7109 6.75586 25.1934 7.46094 25.5645 8.27734C25.7129 8.61133 25.7871 8.96387 25.7871 9.33496C25.7871 10.7204 25.0264 12.4274 23.5049 14.4561C21.9958 16.4847 20.4743 18.2536 18.9404 19.7627C17.4189 21.2718 16.2809 22.3542 15.5264 23.0098L18.8662 34.7178L14.0049 38.2246L5.48828 13.8994C5.46354 13.8994 5.34603 14.0169 5.13574 14.252C4.92546 14.487 4.64714 14.7962 4.30078 15.1797C3.9668 15.5508 3.75651 15.7796 3.66992 15.8662C3.63281 15.8662 3.50911 15.6003 3.29883 15.0684C3.10091 14.5365 2.82878 13.8005 2.48242 12.8604C2.14844 11.9079 1.77116 10.8564 1.35059 9.70605C0.917643 8.54329 0.626953 7.81348 0.478516 7.5166ZM12.4834 12.6748L14.0049 18.1484C14.7718 17.3691 15.7243 16.3053 16.8623 14.957C18.0003 13.6087 18.5693 12.6315 18.5693 12.0254C18.5693 11.7904 18.4704 11.6543 18.2725 11.6172C17.7158 11.4935 17.1654 11.4316 16.6211 11.4316C14.9883 11.4316 13.609 11.846 12.4834 12.6748ZM42.3817 16.9053C43.2599 17.3753 43.9712 18.0124 44.5155 18.8164C45.0721 19.6081 45.4741 20.5049 45.7215 21.5068C45.9813 22.4964 46.1112 23.5293 46.1112 24.6055C46.1112 25.4961 46.037 26.3558 45.8885 27.1846C45.7524 28.0133 45.5607 28.7741 45.3133 29.4668C45.0659 30.1595 44.7752 30.7471 44.4412 31.2295C43.662 32.3923 42.827 33.3942 41.9364 34.2354C41.0457 35.0765 40.1366 35.7568 39.2088 36.2764C38.2811 36.7835 37.3595 37.1546 36.4442 37.3896C35.5412 37.637 34.6444 37.7607 33.7537 37.7607C32.7023 37.7607 31.7004 37.5938 30.7479 37.2598C29.8078 36.9382 29.0037 36.5114 28.3358 35.9795C27.2349 35.0641 26.3752 33.8333 25.7567 32.2871C25.1382 30.7285 24.8289 29.0833 24.8289 27.3516C24.8289 24.3704 25.6886 21.9645 27.408 20.1338C28.8801 18.5628 30.4015 17.3815 31.9725 16.5898C33.5435 15.7858 35.1515 15.3838 36.7967 15.3838C37.7616 15.3838 38.6893 15.5075 39.5799 15.7549C40.4705 15.9899 41.4045 16.3734 42.3817 16.9053ZM41.287 20.0225C41.0767 20.9626 40.619 21.7913 39.9139 22.5088C39.2212 23.2262 38.5409 23.585 37.8729 23.585C37.5389 23.585 37.242 23.4984 36.9823 23.3252C36.6112 23.0283 36.4256 22.5088 36.4256 21.7666C36.4256 21.1976 36.6112 20.6348 36.9823 20.0781C37.3657 19.5215 37.9657 19.0824 38.7821 18.7607C37.9657 18.7607 37.174 18.9154 36.4071 19.2246C35.6525 19.5339 35.0031 19.9359 34.4588 20.4307C33.9146 20.9131 33.4754 21.4635 33.1414 22.082C32.8198 22.6882 32.659 23.3005 32.659 23.9189C32.659 25.0693 33.1909 25.9847 34.2547 26.665C35.2443 27.2959 36.1844 27.6113 37.075 27.6113C37.9533 27.6113 38.7326 27.3206 39.4129 26.7393C40.0933 26.1455 40.6128 25.391 40.9715 24.4756C41.3302 23.5479 41.5096 22.6325 41.5096 21.7295C41.5096 21.111 41.4354 20.542 41.287 20.0225ZM45.6911 5.99512L55.1169 2.04297L56.4899 23.4736L64.2458 19.2246L72.2985 20.4307L61.7966 28.4834L71.6862 35.9424L72.1315 43.3828L57.5475 32.8994L58.0114 42.0098L49.1794 42.1768L47.5095 9.94727L44.7819 10.5596L45.6911 5.99512ZM87.8726 26.7393L92.3443 32.1387C91.9855 33.1777 91.132 34.1302 89.7837 34.9961C88.4478 35.862 86.8521 36.5423 84.9966 37.0371C83.1535 37.5443 81.3104 37.7979 79.4673 37.7979C77.8345 37.7979 76.3749 37.5814 75.0884 37.1484C73.8143 36.7155 72.8309 36.0599 72.1382 35.1816C70.9383 33.6725 70.3384 31.7428 70.3384 29.3926C70.3384 27.5371 70.6724 25.7126 71.3404 23.9189C72.0207 22.113 72.7381 20.8512 73.4927 20.1338C74.3957 19.2803 75.3729 18.569 76.4243 18C77.4881 17.431 78.5891 17.0042 79.7271 16.7197C80.8651 16.4352 82.034 16.293 83.2339 16.293C84.8049 16.293 86.2954 16.5465 87.7056 17.0537C89.1281 17.5485 90.3713 18.2721 91.4351 19.2246L81.2486 31.3779C82.1516 31.3779 83.0051 31.1924 83.8091 30.8213C84.6255 30.4378 85.3739 29.8997 86.0542 29.207C86.7346 28.502 87.3407 27.6794 87.8726 26.7393ZM82.7329 22.416C82.1268 22.1068 81.5083 21.9521 80.8775 21.9521C80.2095 21.9521 79.5601 22.0882 78.9292 22.3604C78.3107 22.6325 77.8716 22.9541 77.6118 23.3252C76.8449 24.3148 76.4614 25.4033 76.4614 26.5908C76.4614 27.0238 76.5047 27.4382 76.5913 27.834C76.6779 28.2298 76.8264 28.7741 77.0366 29.4668L82.7329 22.416ZM73.1958 9.03809L83.0855 3.56445L87.3345 10.0957L75.3296 12.3779L73.1958 9.03809ZM109.217 15.7178C112.421 14.7035 114.802 14.1963 116.361 14.1963C117.598 14.1963 118.661 14.4499 119.552 14.957C120.653 15.5879 121.841 16.6641 123.115 18.1855C124.389 19.707 125.18 21.1172 125.49 22.416C126.145 25.0508 126.473 27.3516 126.473 29.3184C126.473 30.3574 126.405 31.4521 126.269 32.6025C126.133 33.7406 125.923 35.2064 125.638 37L117.882 37.4639C117.907 36.8454 117.919 35.9548 117.919 34.792C117.919 29.943 117.251 25.8177 115.915 22.416C115.668 21.8099 115.377 21.3337 115.043 20.9873C114.709 20.641 114.412 20.4678 114.153 20.4678C113.881 20.4678 113.744 20.6595 113.744 21.043C113.744 21.2656 113.769 21.4574 113.819 21.6182C113.905 21.8161 113.992 22.082 114.078 22.416C114.746 25.1003 115.08 27.401 115.08 29.3184C115.08 30.2585 115.019 31.248 114.895 32.2871C114.771 33.3138 114.555 34.8848 114.245 37L106.49 37.4639C106.514 36.8454 106.527 35.9548 106.527 34.792C106.527 29.9307 105.853 25.8053 104.504 22.416C104.343 22.0202 104.22 21.6058 104.133 21.1729C104.047 20.7275 103.985 20.5049 103.948 20.5049C103.898 20.5049 103.756 20.7956 103.521 21.377C103.286 21.9583 103.032 22.5583 102.76 23.1768C102.575 23.6097 102.42 24.1045 102.296 24.6611C102.185 25.2178 102.098 25.8424 102.036 26.5352C101.987 27.2279 101.962 28.0443 101.962 28.9844C101.962 30.8893 102.074 33.3076 102.296 36.2393L93.1859 37.2969C93.0375 36.2083 92.9014 35.126 92.7777 34.0498C92.654 32.9736 92.555 31.9779 92.4808 31.0625C92.419 30.1348 92.388 29.139 92.388 28.0752C92.388 27.6175 92.4128 26.9557 92.4623 26.0898L92.1283 15.2725L99.4203 14.3447L100.478 15.5693C102.432 14.9385 104.028 14.623 105.265 14.623C106.638 14.623 107.955 14.988 109.217 15.7178ZM144.237 16.9053C145.115 17.3753 145.826 18.0124 146.37 18.8164C146.927 19.6081 147.329 20.5049 147.576 21.5068C147.836 22.4964 147.966 23.5293 147.966 24.6055C147.966 25.4961 147.892 26.3558 147.743 27.1846C147.607 28.0133 147.416 28.7741 147.168 29.4668C146.921 30.1595 146.63 30.7471 146.296 31.2295C145.517 32.3923 144.682 33.3942 143.791 34.2354C142.901 35.0765 141.991 35.7568 141.064 36.2764C140.136 36.7835 139.214 37.1546 138.299 37.3896C137.396 37.637 136.499 37.7607 135.609 37.7607C134.557 37.7607 133.555 37.5938 132.603 37.2598C131.663 36.9382 130.859 36.5114 130.191 35.9795C129.09 35.0641 128.23 33.8333 127.612 32.2871C126.993 30.7285 126.684 29.0833 126.684 27.3516C126.684 24.3704 127.543 21.9645 129.263 20.1338C130.735 18.5628 132.256 17.3815 133.827 16.5898C135.398 15.7858 137.006 15.3838 138.652 15.3838C139.616 15.3838 140.544 15.5075 141.435 15.7549C142.325 15.9899 143.259 16.3734 144.237 16.9053ZM143.142 20.0225C142.932 20.9626 142.474 21.7913 141.769 22.5088C141.076 23.2262 140.396 23.585 139.728 23.585C139.394 23.585 139.097 23.4984 138.837 23.3252C138.466 23.0283 138.28 22.5088 138.28 21.7666C138.28 21.1976 138.466 20.6348 138.837 20.0781C139.221 19.5215 139.821 19.0824 140.637 18.7607C139.821 18.7607 139.029 18.9154 138.262 19.2246C137.507 19.5339 136.858 19.9359 136.314 20.4307C135.769 20.9131 135.33 21.4635 134.996 22.082C134.675 22.6882 134.514 23.3005 134.514 23.9189C134.514 25.0693 135.046 25.9847 136.11 26.665C137.099 27.2959 138.039 27.6113 138.93 27.6113C139.808 27.6113 140.587 27.3206 141.268 26.7393C141.948 26.1455 142.468 25.391 142.826 24.4756C143.185 23.5479 143.364 22.6325 143.364 21.7295C143.364 21.111 143.29 20.542 143.142 20.0225ZM157.12 15.5693C158.493 15.1117 159.675 14.7653 160.664 14.5303C161.654 14.2829 162.6 14.1592 163.503 14.1592C164.715 14.1592 165.779 14.4251 166.694 14.957C167.795 15.5879 168.983 16.6641 170.257 18.1855C171.531 19.707 172.323 21.1172 172.632 22.416C173.287 25.0508 173.615 27.3516 173.615 29.3184C173.615 30.3574 173.547 31.4521 173.411 32.6025C173.275 33.7406 173.065 35.2064 172.78 37L165.024 37.4639C165.049 36.8454 165.062 35.9548 165.062 34.792C165.062 29.943 164.394 25.8177 163.058 22.416C162.538 21.1419 162.031 20.5049 161.536 20.5049C160.893 20.5049 160.182 21.3955 159.402 23.1768C159.217 23.6097 159.062 24.1045 158.939 24.6611C158.827 25.2178 158.741 25.8424 158.679 26.5352C158.629 27.2279 158.605 28.0443 158.605 28.9844C158.605 30.8893 158.716 33.3076 158.939 36.2393L149.828 37.2969C149.68 36.2083 149.544 35.126 149.42 34.0498C149.296 32.9736 149.197 31.9779 149.123 31.0625C149.061 30.1348 149.03 29.139 149.03 28.0752C149.03 27.6175 149.055 26.9557 149.105 26.0898L148.771 15.2725L156.063 14.3447L157.12 15.5693ZM221.815 13.584L213.503 19.0205C212.946 17.6351 211.084 16.9424 207.918 16.9424C207.2 16.9424 206.464 17.4557 205.71 18.4824C204.955 19.5091 204.578 20.6657 204.578 21.9521C204.64 22.9294 204.93 23.8695 205.45 24.7725C205.969 25.6631 206.891 26.1393 208.215 26.2012C209.204 26.2012 210.243 25.9352 211.332 25.4033C212.42 24.8714 213.36 23.8076 214.152 22.2119C214.202 22.3109 214.715 22.7747 215.692 23.6035C216.669 24.4323 217.665 25.2611 218.679 26.0898C219.706 26.9186 220.461 27.5309 220.943 27.9268C220.003 30.1781 218.76 31.9408 217.214 33.2148C215.667 34.4889 214.047 35.361 212.352 35.8311C210.658 36.3011 208.975 36.5361 207.305 36.5361C204.967 36.5361 202.908 36.097 201.127 35.2188C199.358 34.3281 197.904 32.8128 196.766 30.6729C195.628 28.5205 194.936 25.6136 194.688 21.9521C194.663 21.5934 194.651 21.0492 194.651 20.3193C194.651 18.4886 194.868 16.7321 195.301 15.0498C195.721 13.3675 196.414 11.8522 197.379 10.5039C198.356 9.14323 199.698 8.03613 201.405 7.18262C203.112 6.3291 205.178 5.88379 207.602 5.84668C209.21 5.84668 210.794 6.03841 212.352 6.42188C213.911 6.79297 215.34 7.31868 216.638 7.99902C217.937 8.66699 219.051 9.48958 219.978 10.4668C220.918 11.4316 221.531 12.4707 221.815 13.584ZM232.027 41.7129L223.659 42.1768L221.989 9.94727L219.261 10.5596L220.17 5.99512L229.596 2.04297L232.027 41.7129ZM246.172 18.835C245.492 18.9215 244.818 19.138 244.15 19.4844C243.494 19.8307 242.931 20.2389 242.461 20.709C241.991 21.179 241.62 21.6986 241.348 22.2676C241.088 22.8242 240.958 23.3747 240.958 23.9189C240.958 25.0446 241.49 25.96 242.554 26.665C243.494 27.2959 244.447 27.6113 245.412 27.6113C245.597 27.6113 245.851 27.5866 246.172 27.5371V23.585C245.838 23.585 245.541 23.4984 245.282 23.3252C244.911 23.0283 244.725 22.4593 244.725 21.6182C244.725 20.4059 245.207 19.4782 246.172 18.835ZM246.321 15.5693L254.077 12.0811L254.225 22.4531C254.324 23.0964 254.373 23.8262 254.373 24.6426C254.373 25.36 254.349 25.8919 254.299 26.2383L254.522 37.6123L246.172 38.0576V36.9258C244.812 37.4824 243.439 37.7607 242.053 37.7607C240.989 37.7607 239.987 37.5999 239.047 37.2783C238.12 36.9567 237.316 36.5238 236.635 35.9795C235.534 35.0641 234.675 33.8333 234.056 32.2871C233.438 30.7285 233.128 29.0833 233.128 27.3516C233.128 24.3704 233.988 21.9645 235.707 20.1338C237.192 18.5752 238.719 17.3939 240.29 16.5898C241.874 15.7858 243.488 15.3838 245.133 15.3838C245.591 15.3838 245.937 15.3962 246.172 15.4209L246.321 15.5693ZM276.33 22.8613C275.959 22.7253 275.056 22.4408 273.621 22.0078C272.199 21.5625 270.925 21.179 269.799 20.8574C268.686 20.5358 267.455 20.2266 266.107 19.9297C264.758 19.6328 263.707 19.4844 262.952 19.4844C262.557 19.4844 262.253 19.5462 262.043 19.6699C261.437 20.1276 261.134 20.5482 261.134 20.9316C261.134 21.5378 261.74 22.0635 262.952 22.5088C264.165 22.9417 265.637 23.2633 267.368 23.4736C269.743 23.7334 271.661 24.29 273.12 25.1436C274.592 25.9971 275.656 26.9928 276.312 28.1309C276.967 29.2565 277.295 30.4131 277.295 31.6006C277.295 32.4417 277.128 33.2272 276.794 33.957C275.359 37 272.607 38.5215 268.537 38.5215C267.424 38.5215 266.169 38.3978 264.771 38.1504C263.373 37.9154 262.031 37.6185 260.744 37.2598C259.47 36.9134 258.11 36.5052 256.662 36.0352C255.215 35.5651 253.867 35.126 252.617 34.7178C252.939 34.0498 253.347 33.2458 253.842 32.3057C254.337 31.3532 254.819 30.4255 255.289 29.5225C255.747 28.6195 255.976 28.1247 255.976 28.0381C256.335 28.3721 256.78 28.6442 257.312 28.8545C257.856 29.0524 258.642 29.2936 259.668 29.5781C260.707 29.8503 261.499 30.0977 262.043 30.3203C263.243 30.7656 264.486 30.9883 265.773 30.9883C266.564 30.9883 267.319 30.9079 268.036 30.7471C268.754 30.5739 269.137 30.4316 269.187 30.3203C269.187 29.9987 268.636 29.6833 267.535 29.374C266.447 29.0524 265.228 28.805 263.88 28.6318C262.346 28.4587 260.8 28.0876 259.241 27.5186C257.695 26.9372 256.378 26.0898 255.289 24.9766C254.201 23.8633 253.656 22.4902 253.656 20.8574C253.656 19.6081 253.972 18.3031 254.603 16.9424C255.295 15.4209 256.335 14.32 257.72 13.6396C259.105 12.9469 260.763 12.6006 262.693 12.6006C264.919 12.6006 267.214 12.916 269.576 13.5469C271.939 14.1777 275.155 15.1549 279.225 16.4785C279.138 16.6641 278.798 17.4557 278.204 18.8535C277.611 20.2389 277.165 21.2533 276.868 21.8965C276.572 22.5397 276.392 22.8613 276.33 22.8613ZM287.433 15.5693C289.647 14.8395 291.558 14.4746 293.166 14.4746C294.638 14.4746 295.918 14.79 297.007 15.4209C297.663 15.8044 298.399 16.3857 299.215 17.165C300.031 17.932 300.749 18.7793 301.367 19.707C301.998 20.6348 302.419 21.5378 302.629 22.416C303.285 25.0508 303.612 27.3516 303.612 29.3184C303.612 30.3574 303.544 31.4521 303.408 32.6025C303.272 33.7406 303.062 35.2064 302.777 37L295.022 37.4639C295.046 36.8454 295.059 35.9548 295.059 34.792C295.059 29.943 294.391 25.8177 293.055 22.416C292.535 21.1419 292.028 20.5049 291.533 20.5049C290.89 20.5049 290.179 21.3955 289.4 23.1768C289.214 23.6097 289.059 24.1045 288.936 24.6611C288.824 25.2178 288.738 25.8424 288.676 26.5352C288.626 27.2279 288.602 28.0443 288.602 28.9844C288.602 30.8893 288.713 33.3076 288.936 36.2393L279.825 37.2969C279.726 36.5794 279.664 35.7383 279.64 34.7734C279.603 33.8086 279.578 32.8128 279.566 31.7861C279.541 30.7594 279.497 29.8255 279.436 28.9844C279.386 28.1309 279.275 27.166 279.102 26.0898L278.601 1.89453L286.208 0.966797L287.433 15.5693ZM307.59 29.2441C308.468 29.2441 309.223 29.3926 309.853 29.6895C310.497 29.974 311.022 30.3265 311.431 30.7471C311.839 31.1553 312.117 31.514 312.266 31.8232C312.414 32.1696 312.488 32.5407 312.488 32.9365C312.488 33.5426 312.358 34.1549 312.099 34.7734C311.839 35.3796 311.517 35.9176 311.134 36.3877C310.763 36.8454 310.416 37.099 310.095 37.1484C309.427 37.2474 308.944 37.2969 308.647 37.2969C307.423 37.2969 306.439 36.9814 305.697 36.3506C304.967 35.7074 304.534 34.8353 304.398 33.7344C304.398 32.6706 304.652 31.681 305.159 30.7656C305.679 29.8503 306.489 29.3431 307.59 29.2441ZM304.844 24.0859L302.413 3.56445L313.509 0.224609L311.226 23.4736L304.844 24.0859Z" fill="#323C96"/>
</svg>
